<svg width="12" height="12" viewBox="0 0 12 12" fill="none" xmlns="http://www.w3.org/2000/svg">
<path fill-rule="evenodd" clip-rule="evenodd" d="M3.408 3.02399C3.30615 3.02399 3.20848 3.06444 3.13647 3.13646C3.06445 3.20847 3.024 3.30614 3.024 3.40799V9.45599C3.024 9.55783 3.06445 9.6555 3.13647 9.72751C3.20848 9.79953 3.30615 9.83998 3.408 9.83998H8.59199C8.69384 9.83998 8.79151 9.79953 8.86352 9.72751C8.93554 9.6555 8.976 9.55783 8.976 9.45599V3.40799C8.976 3.30614 8.93554 3.20847 8.86352 3.13646C8.79151 3.06444 8.69384 3.02399 8.59199 3.02399H7.72799C7.4629 3.02399 7.24799 2.80908 7.24799 2.54399C7.24799 2.27889 7.4629 2.06399 7.72799 2.06399H8.59199C8.94845 2.06399 9.2903 2.20559 9.54235 2.45763C9.79439 2.70968 9.936 3.05153 9.936 3.40799V9.45599C9.936 9.81244 9.79439 10.1543 9.54235 10.4063C9.2903 10.6584 8.94845 10.8 8.59199 10.8H3.408C3.05154 10.8 2.70969 10.6584 2.45764 10.4063C2.20559 10.1543 2.064 9.81244 2.064 9.45599V3.40799C2.064 3.05153 2.20559 2.70968 2.45764 2.45763C2.70969 2.20559 3.05154 2.06399 3.408 2.06399H4.272C4.53709 2.06399 4.752 2.27889 4.752 2.54399C4.752 2.80908 4.53709 3.02399 4.272 3.02399H3.408Z" fill="#222222"/>
<path fill-rule="evenodd" clip-rule="evenodd" d="M4.75199 2.16V2.928H7.24799V2.16H4.75199ZM3.79199 2.112C3.79199 1.60832 4.20031 1.2 4.70399 1.2H7.29599C7.79968 1.2 8.20799 1.60832 8.20799 2.112V2.976C8.20799 3.47968 7.79968 3.888 7.29599 3.888H4.70399C4.20031 3.888 3.79199 3.47968 3.79199 2.976V2.112Z" fill="#222222"/>
</svg>
