<svg width="21" height="21" viewBox="0 0 21 21" fill="none" xmlns="http://www.w3.org/2000/svg">
<path fill-rule="evenodd" clip-rule="evenodd" d="M9.93999 6.3C7.92968 6.3 6.3 7.92968 6.3 9.94C6.3 11.9503 7.92968 13.58 9.93999 13.58C11.9503 13.58 13.58 11.9503 13.58 9.94C13.58 7.92968 11.9503 6.3 9.93999 6.3ZM4.62 9.94C4.62 7.00185 7.00184 4.62 9.93999 4.62C12.8781 4.62 15.26 7.00185 15.26 9.94C15.26 12.8781 12.8781 15.26 9.93999 15.26C7.00184 15.26 4.62 12.8781 4.62 9.94Z" fill="#B4AC9E"/>
<path fill-rule="evenodd" clip-rule="evenodd" d="M12.5101 12.51C12.8381 12.182 13.37 12.182 13.698 12.51L16.134 14.946C16.462 15.2741 16.462 15.8059 16.134 16.134C15.806 16.462 15.2741 16.462 14.9461 16.134L12.5101 13.698C12.182 13.3699 12.182 12.8381 12.5101 12.51Z" fill="#B4AC9E"/>
</svg>
